<?xml version="1.0" standalone="no"?>
<!DOCTYPE svg PUBLIC "-//W3C//DTD SVG 20010904//EN"
 "http://www.w3.org/TR/2001/REC-SVG-20010904/DTD/svg10.dtd">
<svg version="1.0" xmlns="http://www.w3.org/2000/svg"
 width="780.000000pt" height="780.000000pt" viewBox="0 0 780.000000 780.000000"
 preserveAspectRatio="xMidYMid meet">

<g transform="translate(0.000000,780.000000) scale(0.100000,-0.100000)"
fill="#000000" stroke="none">
<path d="M0 3900 l0 -3900 3900 0 3900 0 0 3900 0 3900 -1696 0 -1697 0 6 -92
c4 -51 12 -214 19 -362 l12 -268 88 -62 c49 -33 127 -89 175 -123 47 -34 89
-64 93 -65 7 -3 30 -330 30 -413 0 -30 0 -30 -68 -34 -133 -7 -137 -7 -134 7
4 22 -28 165 -41 181 -26 32 -49 52 -54 47 -6 -5 -86 37 -114 61 -9 7 -19 10
-22 6 -4 -3 -7 1 -7 9 0 21 -62 35 -177 42 -79 5 -99 3 -157 -18 -37 -14 -82
-38 -102 -55 -19 -17 -39 -31 -44 -31 -5 0 -30 -21 -54 -47 -31 -32 -47 -42
-49 -32 -3 8 -17 219 -31 469 -15 250 -32 488 -38 528 -10 70 -12 73 -35 67
-33 -8 -66 11 -58 35 4 13 -3 24 -25 40 -35 25 -41 17 -7 -10 34 -28 13 -34
-27 -8 -35 23 -51 56 -21 44 26 -10 16 0 -35 35 -27 19 -50 37 -50 42 0 4 -9
7 -20 7 -11 0 -20 -4 -20 -9 0 -9 -19 -14 -97 -26 -39 -6 -44 -4 -52 17 -6 12
-10 17 -10 10 -1 -9 -6 -10 -20 -2 -13 7 -542 10 -1640 10 l-1621 0 0 -3900z
m3500 3861 c19 -16 32 -32 28 -36 -9 -9 -78 41 -78 56 0 16 14 10 50 -20z
m-460 -41 c0 -5 -25 -10 -55 -10 -30 0 -55 5 -55 10 0 6 25 10 55 10 30 0 55
-4 55 -10z m-112 -102 c29 -29 1 -96 -36 -84 -25 8 -39 60 -22 81 15 18 42 19
58 3z m2300 -770 c-5 -15 -111 -43 -133 -34 -8 3 -15 15 -15 26 0 18 6 20 76
20 56 0 75 -3 72 -12z m1709 -234 c7 -20 -13 -34 -49 -34 -21 0 -28 5 -28 19
0 32 66 44 77 15z m-97 -13 c0 -11 -8 -22 -17 -25 -16 -4 -277 -31 -398 -40
-78 -6 -376 -35 -418 -41 -35 -5 -38 -4 -35 17 3 26 -25 21 313 53 94 9 244
25 335 34 226 25 220 25 220 2z m-1647 -48 c45 -32 88 -64 96 -71 10 -10 28
-12 60 -8 25 3 81 8 124 12 74 7 77 6 77 -15 0 -14 -6 -21 -19 -21 -10 0 -65
-4 -122 -10 -57 -5 -129 -12 -159 -15 -30 -3 -76 -8 -101 -11 l-46 -5 -6 62
c-10 89 -9 139 3 139 6 0 48 -26 93 -57z m1697 -23 c0 -20 -5 -30 -15 -30 -10
0 -15 10 -15 30 0 20 5 30 15 30 10 0 15 -10 15 -30z m45 10 c7 -23 -2 -43
-16 -35 -12 8 -12 55 0 55 5 0 12 -9 16 -20z m-169 -48 c-3 -3 -25 -6 -48 -6
-39 -1 -43 1 -43 24 0 22 5 26 45 30 41 5 45 3 48 -18 2 -13 1 -26 -2 -30z
m72 31 c-2 -20 -9 -28 -23 -28 -14 0 -21 8 -23 28 -3 23 0 27 23 27 23 0 26
-4 23 -27z m-188 -18 c0 -20 -5 -25 -27 -25 -26 0 -63 25 -63 42 0 4 20 8 45
8 41 0 45 -2 45 -25z m-783 -7 c-3 -8 -6 -5 -6 6 -1 11 2 17 5 13 3 -3 4 -12
1 -19z m623 13 c0 -15 -19 -23 -38 -16 -14 5 -14 7 -2 15 19 12 40 13 40 1z
m-750 -21 c0 -15 -7 -20 -25 -20 -24 0 -34 18 -18 33 15 15 43 7 43 -13z m670
0 c0 -18 -3 -19 -20 -10 -23 12 -40 6 -40 -16 0 -8 -7 -14 -15 -14 -9 0 -15 9
-15 24 0 21 5 25 30 24 17 -1 33 2 37 5 12 13 23 7 23 -13z m-115 -20 c0 -22
-5 -26 -43 -31 -48 -6 -52 -4 -52 27 0 24 21 33 70 30 20 -1 25 -6 25 -26z
m-117 -7 c-3 -25 -7 -28 -38 -28 -28 0 -36 4 -38 22 -3 22 10 30 56 32 20 1
23 -3 20 -26z m-118 -13 c0 -25 -21 -34 -55 -26 -16 4 -25 13 -25 26 0 17 7
20 40 20 34 0 40 -3 40 -20z m-193 -22 c-3 -8 -6 -5 -6 6 -1 11 2 17 5 13 3
-3 4 -12 1 -19z m-160 -25 c-3 -10 -5 -4 -5 12 0 17 2 24 5 18 2 -7 2 -21 0
-30z m30 5 c-3 -7 -5 -2 -5 12 0 14 2 19 5 13 2 -7 2 -19 0 -25z m-182 -8 c0
-20 -6 -26 -27 -28 -24 -3 -28 0 -28 21 0 30 9 39 35 35 14 -2 20 -10 20 -28z
m-75 -4 c0 -18 -7 -25 -31 -30 -51 -10 -59 -7 -59 17 0 32 7 37 52 37 33 0 38
-3 38 -24z m-112 -13 c-3 -25 -8 -28 -42 -31 -45 -4 -58 5 -50 36 5 19 13 22
51 22 42 0 44 -1 41 -27z m-114 1 c8 -20 -12 -46 -32 -42 -15 3 -25 35 -16 50
9 14 42 9 48 -8z m-114 -18 c0 -23 -22 -41 -34 -29 -3 4 -6 17 -6 30 0 16 6
23 20 23 14 0 20 -7 20 -24z m50 -1 c0 -16 -6 -25 -15 -25 -9 0 -15 9 -15 25
0 16 6 25 15 25 9 0 15 -9 15 -25z m-462 -40 c0 -14 -4 -25 -9 -25 -5 0 -9 14
-9 31 0 16 4 28 9 25 5 -3 9 -17 9 -31z m72 8 c0 -22 -2 -25 -10 -13 -13 20
-13 40 0 40 6 0 10 -12 10 -27z m-160 2 c0 -8 -4 -15 -10 -15 -5 0 -10 7 -10
15 0 8 5 15 10 15 6 0 10 -7 10 -15z m-795 -41 c6 -42 2 -64 -10 -52 -11 10
-17 98 -7 98 5 0 13 -21 17 -46z m15 -279 c0 -11 8 -34 18 -50 21 -34 33 -85
21 -85 -5 0 -9 -9 -9 -20 0 -22 -28 -28 -34 -7 -10 31 -16 211 -6 197 5 -8 10
-24 10 -35z m630 -116 c0 -11 -4 -17 -10 -14 -5 3 -10 13 -10 21 0 8 5 14 10
14 6 0 10 -9 10 -21z m40 -14 c0 -8 -4 -15 -10 -15 -5 0 -10 7 -10 15 0 8 5
15 10 15 6 0 10 -7 10 -15z m-3574 -21 c16 -24 16 -27 -3 -52 -25 -33 -60 -40
-78 -15 -31 40 -10 93 35 93 21 0 35 -8 46 -26z m6388 -7 c13 -35 -6 -57 -32
-41 -22 14 -27 41 -11 60 16 20 32 13 43 -19z m-2738 -78 c8 -9 31 -21 52 -27
141 -42 184 -58 261 -97 132 -67 215 -156 267 -288 29 -73 73 -157 91 -175 7
-7 13 -22 13 -33 0 -10 18 -58 41 -106 41 -89 101 -254 94 -261 -2 -2 -13 6
-24 17 -15 15 -34 21 -63 21 -81 0 -88 6 -88 66 0 59 -12 75 -33 44 -14 -21
-14 -21 -21 2 -9 34 -7 48 5 45 16 -3 20 33 8 66 -9 21 -8 31 2 43 12 15 11
16 -11 9 -14 -4 -33 -14 -42 -22 -9 -8 -21 -13 -25 -10 -13 8 -14 -35 -1 -50
6 -8 8 -17 4 -20 -4 -4 -12 -1 -17 7 -9 12 -10 11 -5 -4 6 -17 -7 -35 -25 -36
-15 0 -16 47 -3 131 8 50 14 119 12 153 -3 55 -5 61 -23 58 -24 -4 -65 -41
-65 -58 0 -6 -7 -14 -15 -18 -10 -3 -15 1 -15 14 0 10 -4 22 -10 25 -5 3 -11
23 -11 43 l-1 37 -9 -30 c-6 -22 -7 -17 -3 20 3 28 9 52 14 55 4 3 10 15 14
27 7 21 5 22 -23 17 -25 -5 -30 -3 -33 17 -2 13 1 34 6 47 11 27 7 33 -23 25
-20 -5 -22 -10 -17 -37 7 -33 32 -233 38 -302 2 -31 0 -40 -9 -37 -7 3 -13 8
-13 13 0 4 -18 14 -41 23 l-40 16 -15 -36 c-9 -19 -12 -43 -8 -52 4 -9 6 -20
4 -26 -1 -5 -3 -17 -4 -25 -7 -50 -46 -71 -46 -25 0 14 4 25 10 25 5 0 7 7 4
15 -4 9 -1 29 6 45 18 43 6 75 -36 95 -44 21 -61 15 -79 -27 -15 -36 -20 -24
-16 40 2 25 -2 34 -21 41 -31 12 -44 -1 -51 -51 -3 -24 -11 -44 -16 -46 -6 -2
-11 -10 -11 -17 0 -8 -7 -11 -20 -8 -11 3 -27 0 -35 -7 -9 -7 -15 -8 -15 -2 0
5 7 12 15 16 8 3 15 15 15 27 0 12 8 23 19 26 13 3 20 16 23 40 2 19 2 36 -2
38 -3 2 -43 6 -90 10 -47 3 -101 8 -121 10 l-37 4 1 -87 c0 -48 -2 -96 -4
-107 -3 -17 3 -20 51 -27 59 -7 119 -26 88 -27 -11 -1 -19 -10 -19 -23 -2 -23
-2 -23 -6 0 -3 18 -10 23 -23 19 -11 -3 -21 0 -24 7 -2 6 -5 -5 -5 -24 -1 -26
2 -31 9 -20 6 10 10 11 10 3 0 -7 9 -13 20 -13 11 0 20 -4 20 -8 0 -4 10 -8
21 -9 12 -1 31 -14 43 -29 11 -15 29 -36 39 -48 l18 -21 -10 22 c-14 27 -14
33 -1 33 6 0 10 -6 10 -13 0 -7 25 -39 55 -72 30 -32 55 -65 55 -72 0 -7 4
-13 9 -13 11 0 101 -86 101 -97 0 -4 26 -31 57 -58 32 -28 71 -64 88 -81 34
-35 66 -54 90 -54 13 0 15 6 10 33 -4 17 -11 36 -16 42 -5 5 -9 16 -9 25 0 8
-6 27 -14 42 -8 14 -17 49 -21 77 -4 28 -11 51 -17 51 -6 0 -8 11 -4 24 3 14
2 28 -4 31 -5 3 -10 26 -10 51 0 24 -5 44 -10 44 -6 0 -4 15 5 36 8 20 15 44
14 53 0 10 -2 12 -6 3 -2 -6 -9 -10 -13 -7 -13 8 0 35 16 35 8 0 14 5 14 12 0
25 11 -1 15 -38 5 -37 32 -207 39 -249 2 -11 7 -38 11 -60 3 -22 18 -94 33
-160 18 -84 26 -150 27 -220 0 -92 -3 -104 -28 -148 -15 -26 -59 -79 -96 -117
-111 -113 -170 -181 -208 -243 -27 -44 -41 -57 -55 -54 -10 3 -39 -1 -65 -9
-68 -21 -125 -18 -157 7 -23 18 -31 20 -52 10 -14 -6 -56 -11 -95 -11 -55 0
-80 5 -120 26 -28 14 -60 24 -72 22 -12 -1 -28 2 -36 6 -10 6 -20 2 -32 -12
-23 -29 -28 -28 -98 13 -67 40 -101 77 -101 111 0 30 -30 94 -44 94 -23 -1
-135 -128 -166 -187 -33 -64 -50 -74 -81 -50 -34 27 -29 43 22 62 45 18 49 22
49 53 0 18 -7 40 -15 48 -13 14 -13 17 1 32 15 15 18 14 30 -3 11 -15 14 -16
14 -3 0 25 -21 35 -92 41 -75 7 -108 20 -108 42 0 8 -6 15 -14 15 -19 0 -46
27 -46 46 0 19 50 18 76 -1 23 -18 142 -20 178 -3 20 9 23 14 15 25 -6 7 -20
13 -31 13 -11 0 -47 12 -79 26 -53 24 -63 25 -103 15 -97 -24 -117 -9 -130 99
-4 30 -9 66 -12 80 -5 23 -4 24 9 8 8 -10 19 -18 26 -18 6 0 11 -7 11 -15 0
-9 7 -18 15 -21 8 -4 15 -12 15 -20 0 -20 58 -47 86 -40 34 9 30 24 -8 28 -39
4 -54 38 -17 38 21 0 66 12 114 30 18 7 18 9 -8 19 -16 6 -39 11 -51 11 -13 0
-60 18 -104 40 -44 22 -84 40 -90 40 -10 0 -13 42 -15 200 -1 74 5 105 46 241
26 86 64 203 86 261 21 57 42 120 46 139 4 19 26 75 50 125 41 86 47 93 117
141 46 32 124 71 204 103 167 66 170 67 188 104 l16 31 0 -27 c0 -65 22 -86
164 -159 l71 -36 -40 -13 c-22 -7 -63 -25 -91 -41 -28 -16 -59 -29 -68 -29
-27 0 -18 -17 12 -23 36 -7 82 3 82 17 0 7 24 20 53 30 28 10 58 26 64 34 11
14 14 14 30 0 17 -14 173 -88 187 -88 14 0 5 19 -11 24 -10 3 -30 17 -46 31
-15 14 -49 36 -76 49 l-48 22 85 45 c89 46 181 133 183 173 1 17 3 16 6 -4 3
-14 11 -32 19 -41z m1922 -1 c-7 -20 -48 -23 -48 -4 0 11 9 16 26 16 16 0 24
-5 22 -12z m-4149 -74 c12 -15 21 -34 21 -44 0 -25 -38 -70 -60 -70 -40 0 -69
97 -38 128 20 20 55 13 77 -14z m4211 6 c0 -11 -7 -20 -15 -20 -15 0 -21 21
-8 33 12 13 23 7 23 -13z m45 -40 c-3 -5 -15 -10 -26 -10 -10 0 -19 5 -19 10
0 6 12 10 26 10 14 0 23 -4 19 -10z m35 -45 c0 -2 -9 -9 -20 -15 -16 -9 -20
-8 -20 5 0 8 9 15 20 15 11 0 20 -2 20 -5z m-4300 -175 c0 -5 -4 -10 -10 -10
-5 0 -10 5 -10 10 0 6 5 10 10 10 6 0 10 -4 10 -10z m613 -7 c-7 -2 -19 -2
-25 0 -7 3 -2 5 12 5 14 0 19 -2 13 -5z m117 -29 c0 -11 -5 -11 -25 -2 -14 6
-25 14 -25 18 0 4 11 5 25 2 14 -2 25 -10 25 -18z m79 -5 c30 -11 41 -32 21
-44 -14 -9 -70 23 -70 40 0 18 7 18 49 4z m131 -66 c0 -22 0 -23 -35 -6 -20
10 -35 24 -35 34 0 15 4 16 35 6 27 -8 35 -16 35 -34z m73 -9 c57 -29 60 -60
4 -41 -34 13 -47 24 -47 45 0 16 5 15 43 -4z m977 -84 c0 -5 -5 -10 -11 -10
-5 0 -7 5 -4 10 3 6 8 10 11 10 2 0 4 -4 4 -10z m56 -27 c-11 -11 -17 4 -9 23
7 18 8 18 11 1 2 -10 1 -21 -2 -24z m4 -43 c0 -16 -4 -30 -10 -30 -11 0 -14
43 -3 53 11 12 13 8 13 -23z m-2490 -60 c0 -5 -4 -10 -9 -10 -6 0 -13 5 -16
10 -3 6 1 10 9 10 9 0 16 -4 16 -10z m2521 -77 c-12 -20 -14 -14 -5 12 4 9 9
14 11 11 3 -2 0 -13 -6 -23z m83 21 c27 -10 18 -21 -14 -16 -16 2 -30 8 -30
13 0 10 21 12 44 3z m356 -8 c0 -3 -4 -8 -10 -11 -5 -3 -10 -1 -10 4 0 6 5 11
10 11 6 0 10 -2 10 -4z m-292 -12 c24 -7 30 -42 11 -61 -8 -8 -8 -13 0 -18 12
-7 17 4 24 45 3 14 4 2 4 -27 -1 -52 -5 -55 -39 -26 -12 11 -14 21 -8 43 7 23
4 30 -14 38 -24 12 -13 15 22 6z m275 -34 c3 -11 1 -18 -4 -14 -5 3 -9 -2 -9
-10 0 -9 -4 -16 -10 -16 -13 0 -13 16 0 41 13 24 16 24 23 -1z m317 -113 c0
-14 -20 -37 -32 -37 -12 0 -10 24 4 38 16 16 28 15 28 -1z m-385 -34 c0 -20
-2 -21 -19 -9 -29 19 -30 34 -4 33 17 -2 23 -8 23 -24z m82 -15 c-3 -8 -6 -5
-6 6 -1 11 2 17 5 13 3 -3 4 -12 1 -19z m213 -58 c0 -5 -4 -10 -10 -10 -5 0
-10 5 -10 10 0 6 5 10 10 10 6 0 10 -4 10 -10z m349 -228 c-12 -49 -15 -53
-66 -77 -29 -14 -53 -32 -53 -40 0 -8 17 -19 40 -25 22 -6 40 -14 40 -17 0
-19 -37 -43 -66 -43 -17 0 -56 -11 -86 -25 -29 -14 -61 -25 -71 -25 -33 0 -12
-25 35 -40 26 -8 55 -23 65 -32 11 -10 24 -18 30 -18 14 0 22 -20 15 -38 -2
-7 -22 -22 -44 -33 -21 -11 -42 -27 -45 -35 -9 -23 17 -46 45 -39 31 8 42 -7
42 -58 l0 -38 -29 20 c-25 18 -38 20 -89 15 -37 -4 -63 -12 -66 -20 -3 -8 -19
-14 -35 -14 -22 0 -36 9 -54 33 -41 53 -42 73 -8 85 36 13 49 46 26 68 -14 15
-14 18 9 41 23 23 29 24 57 14 18 -6 34 -9 36 -7 5 4 -57 79 -69 84 -5 2 -8
20 -8 40 0 34 3 38 40 50 22 6 51 12 64 12 14 0 28 5 31 10 3 6 -1 10 -9 10
-40 0 -66 16 -66 39 0 14 10 21 38 26 48 9 66 23 51 41 -12 14 7 21 67 22 35
1 99 35 108 58 3 8 10 12 16 9 6 -4 11 11 12 37 l1 43 5 -40 c2 -22 -2 -64 -9
-93z m-2029 -191 c0 -17 -34 -22 -49 -6 -14 13 -12 15 17 15 18 0 32 -4 32 -9z
m1920 -56 c19 -10 30 -23 30 -37 0 -20 -1 -20 -32 4 -30 23 -47 48 -33 48 3 0
19 -7 35 -15z m-332 -305 c5 -49 -6 -82 -26 -79 -9 2 -36 -9 -59 -24 -50 -32
-55 -33 -51 -9 1 9 -1 22 -5 29 -7 12 50 112 64 113 4 0 9 -10 13 -22 6 -23 6
-23 23 5 22 34 37 30 41 -13z m205 -98 l32 -9 -39 -17 c-22 -9 -40 -15 -40
-14 -1 2 -9 17 -19 35 -9 17 -14 38 -11 47 5 13 9 12 26 -9 10 -14 34 -29 51
-33z m920 51 c-7 -2 -21 -2 -30 0 -10 3 -4 5 12 5 17 0 24 -2 18 -5z m-1079
-39 c8 -21 -19 -37 -34 -20 -6 9 -9 19 -6 24 8 13 34 10 40 -4z m-1259 -21
c-4 -10 -10 -28 -12 -40 -3 -13 -12 -23 -19 -23 -21 0 -18 57 4 69 26 15 35
13 27 -6z m1242 -47 c-4 -10 -1 -13 7 -10 13 5 44 -52 33 -62 -6 -6 -77 55
-77 66 0 5 8 11 18 13 9 3 19 5 21 6 2 0 1 -6 -2 -13z m-202 -16 c-5 -16 -3
-19 12 -14 12 4 8 -3 -11 -21 -20 -18 -31 -23 -36 -15 -6 9 -13 9 -29 1 -11
-7 -21 -8 -21 -4 0 17 33 55 54 63 33 13 38 12 31 -10z m-1001 -42 c-10 -35
-77 -114 -82 -98 -3 8 0 16 7 18 6 2 11 9 11 16 0 7 11 23 25 36 14 13 25 29
25 37 0 7 5 13 11 13 6 0 8 -9 3 -22z m569 -85 c-7 -2 -19 -2 -25 0 -7 3 -2 5
12 5 14 0 19 -2 13 -5z m733 -2690 c18 -24 17 -33 -2 -33 -8 0 -13 -4 -9 -10
3 -5 12 -7 20 -3 9 3 22 -1 31 -8 14 -12 13 -14 -6 -21 -29 -11 -15 -30 16
-22 42 11 154 -96 154 -147 0 -12 -18 -19 -75 -29 -95 -16 -136 -9 -235 41
-75 37 -80 42 -80 72 0 25 3 29 10 17 11 -15 10 -9 -5 65 -4 20 2 29 33 49 21
13 59 29 83 34 24 5 46 10 48 11 2 1 10 -7 17 -16z m-1071 -57 c0 -6 22 -11
49 -12 28 0 51 -5 53 -11 4 -12 -15 -29 -42 -36 -15 -4 -13 -5 8 -6 15 0 27 4
27 9 0 6 6 10 14 10 7 0 17 10 20 23 6 22 7 22 21 3 19 -25 19 -43 0 -62 -17
-17 -20 -70 -6 -107 12 -31 -10 -69 -30 -50 -7 7 -16 8 -23 2 -6 -5 -22 -18
-35 -29 -19 -16 -20 -20 -8 -20 31 0 17 -18 -30 -41 -51 -24 -157 -32 -217
-16 -23 7 -27 5 -23 -7 4 -9 2 -16 -3 -16 -6 0 -10 8 -10 18 0 22 45 117 59
126 21 14 121 187 121 210 0 3 5 17 10 31 10 25 11 26 28 9 9 -10 17 -22 17
-28z m45 24 c12 -8 11 -10 -7 -10 -13 0 -23 5 -23 10 0 13 11 13 30 0z m67
-16 c-3 -3 -12 -4 -19 -1 -8 3 -5 6 6 6 11 1 17 -2 13 -5z m1133 -248 c0 -2
-7 -6 -15 -10 -8 -3 -15 -1 -15 4 0 6 7 10 15 10 8 0 15 -2 15 -4z m-83 -12
c-3 -3 -12 -4 -19 -1 -8 3 -5 6 6 6 11 1 17 -2 13 -5z"/>
<path d="M5405 6389 c-10 -15 3 -25 16 -12 7 7 7 13 1 17 -6 3 -14 1 -17 -5z"/>
<path d="M3570 5368 c0 -6 6 -37 14 -67 31 -122 47 -228 27 -176 -6 14 -8 5
-7 -28 1 -30 -4 -51 -12 -56 -11 -7 -9 -13 10 -31 18 -18 19 -22 5 -16 -11 3
-31 9 -45 12 -23 5 -22 3 8 -14 36 -20 36 -21 31 -96 -1 -14 -6 -17 -26 -12
-24 6 -25 5 -18 -39 4 -36 2 -50 -12 -65 -12 -13 -21 -17 -25 -10 -4 6 -33 12
-65 14 -42 2 -61 8 -71 21 -8 10 -14 22 -14 27 0 4 -7 8 -16 8 -25 0 -10 -57
27 -103 17 -21 29 -42 27 -47 -5 -15 -73 51 -70 67 2 11 -2 14 -12 10 -9 -4
-16 -1 -16 5 0 6 -3 9 -6 6 -3 -3 0 -33 7 -67 8 -42 18 -64 33 -74 35 -22 127
-57 150 -57 30 0 58 -22 51 -40 -3 -8 -21 -25 -40 -37 -29 -18 -40 -20 -71
-12 -20 6 -39 8 -42 4 -7 -7 37 -44 51 -45 5 0 15 -7 23 -15 9 -8 27 -15 42
-16 15 0 52 -12 82 -27 47 -23 55 -30 52 -52 -2 -14 -4 -39 -5 -57 -2 -26 -5
-30 -19 -22 -20 11 -89 -10 -96 -28 -3 -12 21 -17 66 -16 6 1 12 -3 12 -8 0
-5 13 -9 29 -9 15 0 39 -8 52 -18 13 -10 32 -21 42 -25 18 -7 24 -27 7 -27 -5
0 -19 -9 -29 -19 -19 -19 -19 -19 14 -25 18 -4 39 -4 48 0 12 4 14 1 10 -15
-3 -12 -1 -21 5 -21 5 0 12 14 16 32 3 17 18 47 32 66 23 29 25 37 15 59 -6
13 -9 29 -6 34 4 5 1 9 -5 9 -7 0 -6 5 2 14 8 8 15 10 19 4 8 -12 11 -7 34 63
31 95 3 114 -53 35 -21 -29 -29 -50 -25 -64 7 -27 -13 -29 -27 -3 -5 11 -16
26 -24 34 -19 19 -64 221 -82 367 -8 63 -17 202 -20 309 -3 106 -9 204 -14
216 -5 13 -7 39 -4 57 5 27 1 40 -22 66 -30 34 -44 40 -44 20z m177 -1060 c-3
-8 -6 -5 -6 6 -1 11 2 17 5 13 3 -3 4 -12 1 -19z"/>
<path d="M4216 5308 c-22 -4 -44 -12 -50 -16 -6 -5 -20 -9 -31 -10 -83 -4
-104 -20 -86 -65 24 -59 22 -83 -3 -29 -26 55 -34 59 -84 41 -39 -13 -43 -38
-20 -108 26 -79 22 -83 -17 -18 -19 32 -35 64 -35 71 0 7 -6 20 -13 30 -13 17
-16 16 -45 -20 -19 -23 -34 -54 -38 -79 -5 -36 -1 -49 26 -94 18 -29 30 -55
27 -58 -10 -9 12 -43 28 -43 7 0 26 12 42 28 15 15 46 39 68 53 113 73 131 77
130 27 0 -27 4 -34 23 -36 12 -2 22 0 22 5 0 5 8 9 18 10 18 1 57 10 57 13 0
1 14 4 30 6 17 3 35 6 41 8 11 4 13 41 2 51 -3 3 -37 -3 -76 -12 -63 -16 -71
-20 -66 -38 5 -17 3 -17 -11 4 -15 19 -15 25 -4 32 8 5 22 9 32 9 9 0 17 5 17
11 0 6 10 9 23 8 12 -2 28 0 35 4 14 10 16 53 2 62 -17 10 -12 85 5 85 18 0
20 40 3 62 -10 12 -21 13 -52 6z m-20 -143 c3 -36 -4 -43 -23 -24 -8 8 -8 19
0 39 13 35 20 31 23 -15z m-198 8 c-1 -8 4 -24 23 -70 5 -13 5 -23 0 -23 -5 0
-16 21 -25 47 -19 55 -19 53 -6 53 6 0 9 -3 8 -7z"/>
<path d="M5144 5125 c-18 -14 -18 -14 7 -15 15 0 29 7 33 15 7 19 -14 19 -40
0z"/>
<path d="M3513 4946 c4 -10 7 -24 7 -32 0 -8 4 -14 9 -14 15 0 9 35 -8 50 -13
12 -14 12 -8 -4z"/>
<path d="M4274 4940 c-34 -13 -57 -58 -51 -97 10 -58 18 -62 132 -62 96 0 106
2 120 22 33 47 10 108 -48 125 -47 15 -129 21 -153 12z m28 -102 c-12 -12 -32
-2 -31 15 0 9 2 9 6 0 9 -24 23 -13 24 20 2 31 2 32 6 3 3 -16 0 -33 -5 -38z
m65 55 c-9 -2 -15 -8 -12 -13 3 -5 1 -11 -5 -15 -5 -3 -10 3 -10 14 0 15 6 21
23 20 17 -1 18 -2 4 -6z m73 -19 c15 -37 13 -44 -13 -44 -20 0 -23 4 -19 35 5
41 19 45 32 9z m-69 -37 c-8 -8 -14 -8 -23 2 -11 10 -10 11 5 6 12 -5 17 -2
18 11 0 12 2 14 6 6 3 -8 0 -19 -6 -25z"/>
<path d="M3671 4854 c0 -11 3 -14 6 -6 3 7 2 16 -1 19 -3 4 -6 -2 -5 -13z"/>
<path d="M3700 4728 c0 -22 17 -41 29 -34 19 12 13 46 -9 46 -11 0 -20 -6 -20
-12z"/>
<path d="M4400 4710 c0 -5 7 -10 15 -10 8 0 15 5 15 10 0 6 -7 10 -15 10 -8 0
-15 -4 -15 -10z"/>
<path d="M3705 4659 c-10 -15 3 -25 16 -12 7 7 7 13 1 17 -6 3 -14 1 -17 -5z"/>
<path d="M4533 4523 c-32 -4 -46 -22 -37 -47 7 -19 27 -26 53 -19 17 4 20 12
18 39 -1 19 -2 33 -2 32 0 0 -14 -3 -32 -5z"/>
<path d="M3760 4490 c0 -5 5 -10 10 -10 6 0 10 5 10 10 0 6 -4 10 -10 10 -5 0
-10 -4 -10 -10z"/>
<path d="M4600 4466 c0 -17 -6 -26 -15 -26 -13 0 -13 -3 -3 -20 10 -15 10 -24
1 -38 -9 -16 -7 -21 20 -37 18 -11 46 -32 62 -48 34 -33 84 -57 117 -57 13 0
43 -8 68 -16 60 -22 119 -33 125 -24 3 4 -17 25 -43 46 -26 21 -49 42 -50 47
-9 20 -85 47 -135 47 -29 0 -56 3 -60 6 -9 10 4 34 19 34 8 0 14 7 14 16 0 12
-5 14 -17 9 -57 -24 -101 -10 -52 16 12 6 17 14 12 18 -6 3 -13 13 -16 21 -4
11 -6 10 -7 -5 -2 -17 -3 -16 -9 4 -9 34 -31 39 -31 7z"/>
<path d="M4460 4431 c0 -5 7 -14 15 -21 12 -10 19 -10 27 -2 9 9 8 12 -5 12
-9 0 -17 5 -17 10 0 6 -4 10 -10 10 -5 0 -10 -4 -10 -9z"/>
<path d="M4538 4433 c7 -3 16 -2 19 1 4 3 -2 6 -13 5 -11 0 -14 -3 -6 -6z"/>
<path d="M4960 4381 c0 -23 55 -40 72 -23 20 20 0 42 -37 42 -28 0 -35 -4 -35
-19z"/>
<path d="M3892 4197 c-6 -15 -30 -52 -53 -82 -23 -31 -39 -61 -36 -69 8 -19
64 -34 160 -42 64 -6 77 -4 77 8 0 17 -29 43 -83 77 -37 23 -44 36 -50 101
l-3 35 -12 -28z"/>
<path d="M4335 4160 c-3 -5 1 -10 9 -10 9 0 16 5 16 10 0 6 -4 10 -9 10 -6 0
-13 -4 -16 -10z"/>
<path d="M3840 3932 c0 -5 13 -15 29 -22 16 -6 40 -23 53 -37 12 -14 36 -32
51 -40 27 -13 28 -13 25 4 -5 30 -158 122 -158 95z"/>
<path d="M4995 971 c-7 -12 12 -24 25 -16 11 7 4 25 -10 25 -5 0 -11 -4 -15
-9z"/>
<path d="M4025 900 c4 -6 11 -8 16 -5 14 9 11 15 -7 15 -8 0 -12 -5 -9 -10z"/>
<path d="M4140 870 c0 -5 5 -10 10 -10 6 0 10 5 10 10 0 6 -4 10 -10 10 -5 0
-10 -4 -10 -10z"/>
<path d="M4088 843 c7 -3 16 -2 19 1 4 3 -2 6 -13 5 -11 0 -14 -3 -6 -6z"/>
<path d="M3975 820 c-3 -5 1 -10 9 -10 9 0 16 5 16 10 0 6 -4 10 -9 10 -6 0
-13 -4 -16 -10z"/>
<path d="M4105 810 c3 -5 8 -10 11 -10 2 0 4 5 4 10 0 6 -5 10 -11 10 -5 0 -7
-4 -4 -10z"/>
</g>
</svg>
